<?xml version="1.0" standalone="no"?>
<!DOCTYPE svg PUBLIC "-//W3C//DTD SVG 20010904//EN"
 "http://www.w3.org/TR/2001/REC-SVG-20010904/DTD/svg10.dtd">
<svg version="1.0" xmlns="http://www.w3.org/2000/svg"
 width="323.000000pt" height="94.000000pt" viewBox="0 0 323.000000 94.000000"
 preserveAspectRatio="xMidYMid meet">

<g transform="translate(0.000000,94.000000) scale(0.100000,-0.100000)"
fill="#000000" stroke="none">
<path d="M540 495 l0 -115 25 0 c23 0 25 3 25 50 l0 50 40 0 40 0 0 -50 c0
-47 2 -50 25 -50 l25 0 0 115 0 115 -25 0 c-23 0 -25 -4 -25 -45 l0 -45 -40 0
-40 0 0 45 c0 41 -2 45 -25 45 l-25 0 0 -115z"/>
<path d="M813 578 c-6 -18 -25 -70 -42 -115 l-30 -83 23 0 c17 0 26 7 30 25 6
23 11 25 56 25 45 0 52 -3 60 -25 6 -17 17 -25 33 -25 l24 0 -41 115 c-40 113
-42 115 -72 115 -26 0 -32 -5 -41 -32z m60 -63 l16 -45 -35 0 c-32 0 -35 2
-28 23 13 41 23 67 28 67 2 0 11 -20 19 -45z"/>
<path d="M1045 600 c-46 -18 -71 -82 -55 -140 13 -48 39 -70 89 -77 35 -5 44
-2 71 25 34 34 37 47 14 56 -10 4 -23 -3 -36 -19 -38 -49 -98 -18 -98 50 0 65
60 99 97 55 19 -22 23 -23 41 -12 18 12 4 40 -29 57 -31 16 -63 18 -94 5z"/>
<path d="M1230 495 l0 -115 80 0 c73 0 80 2 80 20 0 18 -7 20 -60 20 l-60 0 0
95 c0 88 -1 95 -20 95 -19 0 -20 -7 -20 -115z"/>
<path d="M1458 591 c-55 -44 -59 -140 -7 -187 29 -26 109 -26 138 0 48 44 49
138 1 181 -31 28 -100 31 -132 6z m106 -43 c36 -51 9 -128 -44 -128 -35 0 -60
31 -60 75 0 68 69 103 104 53z"/>
<path d="M1715 600 c-46 -18 -71 -82 -55 -140 13 -48 39 -70 89 -77 35 -5 44
-2 71 25 34 34 37 47 14 56 -10 4 -23 -3 -36 -19 -38 -49 -98 -18 -98 50 0 65
60 99 97 55 19 -22 23 -23 41 -12 18 12 4 40 -29 57 -31 16 -63 18 -94 5z"/>
<path d="M1928 591 c-55 -44 -59 -140 -7 -187 29 -26 109 -26 138 0 48 44 49
138 1 181 -31 28 -100 31 -132 6z m106 -43 c36 -51 9 -128 -44 -128 -35 0 -60
31 -60 75 0 68 69 103 104 53z"/>
<path d="M2230 510 c-45 -45 -13 -130 50 -130 41 0 70 31 70 75 0 44 -29 75
-70 75 -17 0 -39 -9 -50 -20z m80 -24 c28 -35 -11 -93 -47 -70 -36 22 -23 84
17 84 10 0 23 -7 30 -14z"/>
<path d="M2380 455 c0 -43 4 -75 10 -75 6 0 10 14 10 30 0 20 5 30 15 30 8 0
24 -13 37 -30 12 -16 30 -30 41 -30 18 0 18 2 -5 33 -23 31 -24 33 -6 50 22
21 23 31 2 51 -9 10 -33 16 -60 16 l-44 0 0 -75z m85 30 c0 -5 -15 -11 -32
-13 -25 -3 -33 1 -33 13 0 12 8 16 33 13 17 -2 32 -7 32 -13z"/>
<path d="M2542 507 c-44 -47 -11 -127 52 -127 33 0 66 28 66 56 0 21 -5 24
-35 24 -24 0 -35 -5 -35 -15 0 -8 9 -15 21 -15 11 0 17 -4 14 -10 -9 -15 -51
-12 -65 4 -30 37 12 92 51 68 30 -19 53 3 25 24 -29 21 -70 17 -94 -9z"/>
<path d="M2130 400 c0 -15 7 -20 25 -20 18 0 25 5 25 20 0 15 -7 20 -25 20
-18 0 -25 -5 -25 -20z"/>
</g>
</svg>
